<svg width="500" height="105" viewBox="0 0 500 105" fill="none" xmlns="http://www.w3.org/2000/svg">
<path d="M496.703 71.9569H500V75.9223H496.748L496.703 71.9569Z" fill="black"/>
<path d="M499.51 56.5408V60.1498H491.713C490.777 60.1498 490.109 60.2834 489.752 60.5507C489.351 60.8626 489.173 61.4864 489.173 62.4221C489.173 64.1597 490.242 65.0508 492.426 65.0508H499.51V68.6598H486.366L488.015 66.7439C486.812 65.6746 486.143 64.2934 486.099 62.5557C486.099 58.5458 488.015 56.5408 491.802 56.5408H499.51Z" fill="black"/>
<path d="M496.792 39.2087C497.683 39.877 498.441 40.7236 499.064 41.6592C499.688 42.5949 499.956 44.0652 499.866 46.0257C499.956 48.8327 499.243 50.9268 497.817 52.2189C496.614 53.5555 494.921 54.1347 492.827 54.0456C491.312 54.2239 489.797 53.5555 488.282 52.0406C486.767 50.5258 486.01 48.6099 486.01 46.3376C485.921 43.9761 486.723 42.0602 488.327 40.5899C489.975 39.1196 491.846 38.3622 493.941 38.3622V50.6594C495.901 50.2139 496.97 48.6544 497.104 45.9811C497.104 44.2435 496.525 42.9514 495.411 42.1048L496.792 39.2087ZM491.668 42.0602C490.02 42.8177 489.084 44.1989 488.95 46.2484C489.084 48.4317 490.02 49.9465 491.668 50.7931V42.0602Z" fill="black"/>
<path d="M489.44 28.3818V30.8769H499.51V34.4859H489.44L489.396 36.3126L486.143 34.4859H481.465V30.8769H486.143V28.3818H489.44Z" fill="black"/>
<path d="M217.163 96.7297C217.163 97.6208 216.806 98.3337 216.093 99.002C215.38 99.6258 214.445 99.9376 213.331 99.8485C211.905 99.7594 210.791 99.3584 209.989 98.6901L211.148 96.9524C211.95 97.2643 212.796 97.5317 213.598 97.6653C214.088 97.5762 214.4 97.3534 214.578 96.997C214.534 96.4623 214.177 96.1059 213.509 95.8386C212.306 95.2148 211.638 94.8138 211.504 94.7247C210.791 94.19 210.435 93.5217 210.435 92.7642C210.435 91.9622 210.747 91.2939 211.415 90.7592C212.039 90.2246 212.796 89.9572 213.598 89.9572C214.356 89.9572 214.935 90.1355 215.47 90.4919C215.915 90.6256 216.316 90.8929 216.717 91.2494L215.47 92.6306C214.89 92.3187 214.222 92.1405 213.465 92.1405C213.331 92.1405 213.242 92.185 213.108 92.2741C212.974 92.3632 212.93 92.4969 212.93 92.6306C212.93 92.8979 213.286 93.1652 214.044 93.4771C215.069 93.8781 215.737 94.2346 216.093 94.5464C216.762 95.1257 217.163 95.8831 217.163 96.7297Z" fill="black"/>
<path d="M227.499 99.6257H224.915V93.6108C224.915 92.9424 224.782 92.4969 224.514 92.2741C224.247 92.0068 223.801 91.9177 223.133 91.9177C221.975 91.9177 221.395 92.7197 221.395 94.3237V99.6257H218.767V84.4769H221.395V90.3582C221.975 89.8681 222.821 89.6008 223.89 89.6008C226.341 89.6008 227.544 90.9375 227.544 93.6108V99.6257H227.499Z" fill="black"/>
<path d="M239.396 99.6257H236.812V98.8683C236.054 99.5812 235.118 99.9376 234.005 99.9376C232.579 99.9376 231.42 99.4475 230.485 98.4673C229.549 97.4871 229.104 96.2841 229.104 94.8583C229.104 93.4325 229.549 92.2741 230.485 91.3384C231.42 90.4028 232.579 89.9127 234.005 89.9127C235.698 89.8681 236.945 90.2691 237.703 91.1602L239.396 90.1354V99.6257ZM236.856 94.8583C236.856 94.1009 236.633 93.4325 236.143 92.9424C235.653 92.4523 235.074 92.185 234.272 92.185C233.514 92.185 232.891 92.4523 232.401 92.987C231.91 93.5216 231.688 94.1454 231.688 94.9029C231.688 95.6158 231.91 96.2841 232.356 96.8187C232.846 97.398 233.425 97.7099 234.138 97.7099C234.94 97.7099 235.609 97.4425 236.099 96.9079C236.633 96.3732 236.856 95.6603 236.856 94.8583Z" fill="black"/>
<path d="M246.391 89.4671L246.346 92.2296C244.431 92.5414 243.495 93.4326 243.629 94.8138V99.5812H241.044V90.1355L242.247 91.3385C243.317 90.4028 244.698 89.779 246.391 89.4671Z" fill="black"/>
<path d="M258.822 97.6208C258.332 98.2891 257.753 98.8238 257.084 99.2693C256.416 99.7149 255.347 99.8931 253.921 99.8485C251.871 99.8931 250.401 99.403 249.465 98.3782C248.53 97.4871 248.084 96.2841 248.173 94.7692C248.039 93.6553 248.53 92.586 249.599 91.5167C250.668 90.4028 252.049 89.8681 253.698 89.8681C255.391 89.8236 256.772 90.3582 257.842 91.5612C258.911 92.7197 259.446 94.1009 259.446 95.6158H250.624C250.936 97.0416 252.049 97.799 253.965 97.8881C255.213 97.8881 256.149 97.4871 256.728 96.6405L258.822 97.6208ZM256.772 93.9672C256.238 92.7642 255.213 92.0959 253.743 92.0068C252.139 92.0959 251.069 92.7642 250.49 93.9672H256.772Z" fill="black"/>
<path d="M278.248 90.18L271.431 104.839H268.312L270.763 99.5812L266.664 90.18H269.693L272.367 96.4623L275.218 90.18H278.248Z" fill="black"/>
<path d="M290.367 94.9474C290.367 96.3732 289.832 97.5317 288.763 98.5119C287.694 99.4475 286.446 99.9376 285.02 99.9376C283.595 99.9376 282.392 99.4475 281.322 98.5119C280.208 97.5317 279.674 96.3287 279.674 94.9474C279.674 93.5217 280.208 92.2741 281.278 91.3385C282.303 90.4028 283.55 89.9572 285.02 89.9572C286.491 89.9572 287.738 90.4028 288.763 91.3385C289.832 92.3187 290.367 93.5217 290.367 94.9474ZM287.783 94.9474C287.783 94.19 287.516 93.5662 286.981 93.0761C286.446 92.586 285.778 92.3187 285.02 92.3187C284.263 92.3187 283.595 92.586 283.06 93.0761C282.525 93.5662 282.213 94.2346 282.213 94.992C282.213 95.7049 282.525 96.3287 283.105 96.8188C283.639 97.3089 284.308 97.5762 285.02 97.5762C285.778 97.5762 286.402 97.3089 286.936 96.8188C287.471 96.3287 287.783 95.7049 287.783 94.9474Z" fill="black"/>
<path d="M300.481 100.027L299.323 98.9574C298.565 99.7149 297.54 100.071 296.204 100.071C294.912 100.071 293.887 99.6703 293.04 98.8683C292.194 98.0663 291.793 97.0415 291.793 95.7494V90.2246H294.377V95.5267C294.377 96.1504 294.511 96.6406 294.823 97.0415C295.134 97.4871 295.58 97.7544 296.204 97.7544C297.318 97.7544 297.897 96.997 297.897 95.5267V90.2246H300.481V100.027Z" fill="black"/>
<path d="M307.61 89.4671L307.565 92.2296C305.649 92.5414 304.714 93.4326 304.848 94.8138V99.5812H302.263V90.1355L303.466 91.3385C304.536 90.4028 305.917 89.779 307.61 89.4671Z" fill="black"/>
<path d="M324.407 99.6257H320.977L317.813 95.7494L317.635 95.8831V99.6257H315.051L315.006 84.566H317.635V92.7197L320.576 89.8681H324.096L319.729 94.0563L324.407 99.6257Z" fill="black"/>
<path d="M334.878 99.6258H332.294V94.0118C332.294 93.3435 332.205 92.8533 332.026 92.586C331.804 92.3187 331.358 92.1405 330.69 92.1405C329.442 92.1405 328.818 92.8979 328.818 94.4573V99.5812H326.145V90.1355L327.526 91.3385C328.284 90.4474 329.308 90.0018 330.556 89.9572C333.452 89.9572 334.878 91.3385 334.878 94.0563V99.6258Z" fill="black"/>
<path d="M346.952 94.9474C346.952 96.3732 346.418 97.5317 345.348 98.5119C344.279 99.4475 343.031 99.9376 341.606 99.9376C340.18 99.9376 338.977 99.4475 337.908 98.5119C336.794 97.5317 336.259 96.3287 336.259 94.9474C336.259 93.5217 336.794 92.2741 337.863 91.3385C338.888 90.4028 340.135 89.9572 341.606 89.9572C343.076 89.9572 344.324 90.4028 345.348 91.3385C346.418 92.3187 346.952 93.5217 346.952 94.9474ZM344.368 94.9474C344.368 94.19 344.101 93.5662 343.566 93.0761C343.031 92.586 342.363 92.3187 341.606 92.3187C340.848 92.3187 340.18 92.586 339.645 93.0761C339.111 93.5662 338.799 94.2346 338.799 94.992C338.799 95.7049 339.111 96.3287 339.69 96.8188C340.224 97.3089 340.893 97.5762 341.606 97.5762C342.363 97.5762 342.987 97.3089 343.522 96.8188C344.056 96.3287 344.368 95.7049 344.368 94.9474Z" fill="black"/>
<path d="M363.928 90.6256L358.537 99.9376L355.774 94.7247L353.101 99.9376L347.665 90.6256H350.606L353.056 95.1257L355.774 89.6899L358.537 95.1257L360.943 90.6256H363.928Z" fill="black"/>
<path d="M367.582 99.6257H364.997V84.566H367.537L367.582 99.6257Z" fill="black"/>
<path d="M380.146 97.6208C379.656 98.2891 379.077 98.8238 378.364 99.2693C377.696 99.7149 376.626 99.8931 375.2 99.8485C373.151 99.8931 371.681 99.403 370.745 98.3782C369.809 97.4871 369.364 96.2841 369.453 94.7692C369.319 93.6553 369.809 92.586 370.879 91.5167C371.948 90.4028 373.329 89.8681 374.978 89.8681C376.671 89.8236 378.052 90.3582 379.121 91.5612C380.191 92.7197 380.725 94.1009 380.725 95.6158H371.903C372.215 97.0416 373.329 97.799 375.245 97.8881C376.493 97.8881 377.428 97.4871 378.007 96.6405L380.146 97.6208ZM378.141 93.9672C377.606 92.7642 376.582 92.0959 375.111 92.0068C373.507 92.0959 372.438 92.7642 371.859 93.9672H378.141Z" fill="black"/>
<path d="M392.533 99.7594L391.151 98.601C390.349 99.5812 389.013 100.027 387.23 99.8931C385.805 99.8931 384.646 99.403 383.711 98.3782C382.775 97.398 382.285 96.195 382.285 94.7692C382.285 93.2989 382.73 92.0513 383.621 91.0711C384.513 90.0463 385.671 89.5562 387.141 89.5562C387.587 89.5562 388.032 89.6008 388.478 89.6453C388.879 89.6899 389.414 89.9127 389.993 90.3137V84.5215H392.533V99.7594ZM390.082 94.8138C390.082 93.9672 389.859 93.2543 389.369 92.7197C388.924 92.185 388.255 91.9177 387.409 91.9177C386.651 91.9177 386.027 92.2296 385.537 92.8088C385.136 93.388 384.914 94.0563 384.914 94.8138C384.914 95.5712 385.136 96.2395 385.582 96.7742C386.027 97.3534 386.651 97.6208 387.364 97.6208C388.211 97.6208 388.834 97.3534 389.325 96.8633C389.815 96.3286 390.082 95.6603 390.082 94.8138Z" fill="black"/>
<path d="M404.34 99.4921C404.34 103.146 402.736 104.972 399.483 104.972C398.146 104.839 397.211 104.616 396.676 104.438C396.141 104.215 395.518 103.858 394.76 103.368L396.008 101.631C396.676 102.076 397.211 102.344 397.656 102.477C398.102 102.611 398.77 102.655 399.661 102.655C400.508 102.477 401.132 102.076 401.533 101.497C401.755 101.007 401.845 100.205 401.8 99.1356C401.176 99.8485 400.196 100.16 398.904 100.16C397.478 100.16 396.275 99.6257 395.384 98.5564C394.537 97.5316 394.136 96.2841 394.136 94.8137C394.136 93.4771 394.582 92.3186 395.518 91.3384C396.453 90.3582 397.567 89.9127 398.859 89.9127C400.33 89.8235 401.755 90.2245 403.048 91.2048L404.384 90.1354V99.4921H404.34ZM401.845 94.992C401.845 94.2345 401.622 93.6107 401.176 93.0761C400.686 92.4969 400.062 92.2295 399.305 92.2295C398.547 92.2295 397.924 92.4969 397.434 93.0315C396.943 93.5662 396.721 94.19 396.721 94.992C396.721 95.794 396.943 96.5068 397.344 96.997C397.79 97.5762 398.414 97.8881 399.216 97.8881C400.062 97.8881 400.731 97.6207 401.176 97.0415C401.622 96.5514 401.845 95.8385 401.845 94.992Z" fill="black"/>
<path d="M416.726 97.6208C416.236 98.2891 415.657 98.8238 414.944 99.2693C414.276 99.7149 413.206 99.8931 411.78 99.8485C409.731 99.8931 408.261 99.403 407.325 98.3782C406.389 97.4871 405.944 96.2841 406.033 94.7692C405.899 93.6553 406.389 92.586 407.459 91.5167C408.528 90.4028 409.909 89.8681 411.558 89.8681C413.251 89.8236 414.632 90.3582 415.701 91.5612C416.771 92.7197 417.305 94.1009 417.305 95.6158H408.483C408.795 97.0416 409.909 97.799 411.825 97.8881C413.073 97.8881 414.008 97.4871 414.587 96.6405L416.726 97.6208ZM414.677 93.9672C414.142 92.7642 413.117 92.0959 411.647 92.0068C410.043 92.0959 408.973 92.7642 408.394 93.9672H414.677Z" fill="black"/>
<path d="M206.113 56.9863C207.806 54.0456 211.816 53.1991 214.534 55.2041C214.668 55.2932 214.668 55.3377 214.579 55.4269C213.554 56.7635 213.064 58.2784 213.108 59.9715C213.108 61.219 213.108 62.5112 213.108 63.7587C213.108 65.0954 213.108 66.3875 213.108 67.7241C209.633 66.031 206.87 63.0904 205.4 59.4814C205.445 58.6348 205.667 57.7883 206.113 56.9863Z" fill="#FFDE17"/>
<path d="M211.103 53.6001C209.633 53.6001 208.43 52.3971 208.43 50.9268C208.43 49.4564 209.633 48.2534 211.103 48.2534C212.574 48.2534 213.777 49.4564 213.777 50.9268C213.777 52.3971 212.574 53.6001 211.103 53.6001Z" fill="#FFDE17"/>
<path d="M214.668 59.8378C214.668 59.2586 214.757 58.6794 214.935 58.1447C215.737 55.9169 217.296 54.5357 219.658 54.1793C221.217 53.9119 222.643 54.3129 223.891 55.2486C225.495 56.4516 226.252 58.1001 226.252 60.1051C226.252 62.7339 226.252 65.4072 226.252 68.036C224.292 68.8825 222.197 69.3281 219.97 69.3281C218.098 69.3281 216.316 69.0162 214.668 68.437C214.668 67.2785 214.668 66.0755 214.668 64.9171C214.668 63.224 214.668 61.5309 214.668 59.8378Z" fill="#39B54A"/>
<path d="M226.43 55.2486C227.678 54.3575 229.059 54.0011 230.574 54.1793C232.713 54.4467 234.495 55.8724 235.252 57.8329C234.138 61.8874 231.421 65.229 227.901 67.2786C227.901 64.8726 227.901 62.4666 227.901 60.0606C227.901 58.3675 227.411 56.8526 226.43 55.516C226.297 55.3823 226.297 55.3378 226.43 55.2486Z" fill="#ED1C24"/>
<path d="M220.46 53.6001C218.989 53.6001 217.786 52.3971 217.786 50.9268C217.786 49.4564 218.945 48.2534 220.415 48.2534C221.886 48.2534 223.089 49.4119 223.089 50.9268C223.133 52.3971 221.93 53.6001 220.46 53.6001Z" fill="#39B54A"/>
<path d="M229.816 53.6001C228.346 53.6001 227.143 52.3971 227.143 50.9268C227.143 49.4119 228.346 48.2534 229.861 48.2534C231.331 48.2534 232.445 49.4564 232.49 50.8377C232.534 52.3525 231.331 53.5555 229.816 53.6001Z" fill="#ED1C24"/>
<path d="M172.295 99.804C173.053 100.606 173.855 101.363 174.924 101.809C177.063 102.7 179.424 102.21 181.162 100.517C184.816 96.8633 188.469 93.2098 192.167 89.5117C193.682 87.9968 195.152 86.5265 196.667 85.0116C198.271 83.4076 198.806 81.4917 198.227 79.264C198.182 79.1303 198.227 78.863 198.316 78.7293C200.143 76.9025 201.969 75.0312 203.796 73.2044C210.97 78.5511 218.811 80.1996 227.41 77.7491C233.47 76.0114 238.282 72.3579 241.713 67.1004C248.708 56.4071 246.881 42.1494 237.391 33.6393C227.811 25.0401 213.42 24.6391 203.573 32.7928C198.138 37.2928 194.974 43.085 194.217 50.1248C193.459 57.1645 195.375 63.4468 199.652 69.0608C199.563 69.1945 199.474 69.2836 199.341 69.3727C197.647 71.0658 195.954 72.7589 194.261 74.452C194.038 74.6748 193.86 74.7193 193.548 74.6748C191.454 74.0956 189.538 74.5411 187.979 76.1005C182.721 81.3135 177.508 86.5711 172.295 91.784C170.023 94.1009 170.068 97.5317 172.295 99.804ZM202.326 52.9318C202.326 43.3524 210.034 35.2879 220.014 35.3324C229.816 35.377 237.614 43.2187 237.569 52.9763C237.569 54.6249 237.346 56.2289 236.901 57.6992C235.653 62.2438 232.623 65.9419 228.747 68.2143C228.168 68.5261 227.589 68.838 226.965 69.1054C224.782 70.041 222.42 70.5311 219.97 70.5311C217.876 70.5311 215.915 70.1747 214.088 69.5064C213.465 69.2836 212.885 69.0608 212.306 68.7489C208.43 66.8776 205.356 63.5805 203.707 59.5705C202.816 57.5655 202.326 55.2932 202.326 52.9318Z" fill="black"/>
<path d="M40.9909 72.5361C36.1789 74.6748 31.4115 75.7441 26.6886 75.7441C19.5598 75.7441 13.4112 73.5609 8.28729 69.239C2.76243 64.6498 0 58.8576 0 51.8624C0 44.7336 2.71788 38.8077 8.10907 34.0849C13.2329 29.6293 19.4261 27.4016 26.6886 27.4016C31.8125 27.4016 36.8027 28.7828 41.5701 31.5898L35.1542 40.7682C33.6838 39.2533 30.5204 38.4513 25.6639 38.4513C22.1886 38.4513 19.2034 39.6988 16.6191 42.1939C14.0349 44.689 12.7874 47.6742 12.7874 51.1496C12.7874 54.9368 14.0349 58.1447 16.53 60.6844C19.0251 63.2686 22.1886 64.5162 25.9758 64.5162C29.0501 64.5162 31.8125 63.7587 34.2631 62.1993L35.7779 61.3082L40.9909 72.5361Z" fill="#00AEEF"/>
<path d="M79.0858 60.729C76.3679 63.1795 73.2491 64.3825 69.6401 64.3825C66.0311 64.3825 62.9122 63.1795 60.2389 60.7735C57.3874 58.323 55.9616 55.2932 55.9616 51.7733C55.9616 48.0307 57.2982 44.9118 60.0161 42.4167C62.734 39.9216 65.942 38.6741 69.6401 38.6741C73.3827 38.6741 76.5461 39.9216 79.1749 42.4167C80.1551 43.3524 80.9126 44.3326 81.5363 45.4019H95.0366C93.9227 41.0355 91.5167 37.2483 87.9078 33.9957C82.8285 29.4511 76.7689 27.1788 69.6401 27.1788C62.5112 27.1788 56.4071 29.4511 51.3724 33.9957C46.1149 38.7186 43.4861 44.6445 43.4861 51.6842C43.4861 58.5012 46.204 64.2934 51.5952 69.0608C56.8081 73.65 62.8231 75.9669 69.6846 75.9669C76.6798 75.9669 82.7839 73.65 88.0414 69.0162C91.8286 65.63 94.2792 61.6646 95.3039 57.0754H81.9819C81.269 58.3675 80.3334 59.6151 79.0858 60.729Z" fill="#00AEEF"/>
<path d="M193.816 24.7728L193.638 38.3621C184.192 39.9661 179.736 44.1989 180.36 51.0604V74.3629H167.662V28.159L173.454 33.9512C178.756 29.4511 185.573 26.3768 193.816 24.7728Z" fill="black"/>
<path d="M321.957 30.565L295.669 75.9223L282.169 50.4366L269.07 75.9223L242.604 30.565H256.995L268.892 52.5308L282.169 25.9312L295.669 52.5308L307.432 30.565H321.957Z" fill="black"/>
<path d="M356.799 60.3725C356.799 64.6498 355.062 68.3034 351.586 71.3777C348.111 74.452 343.611 75.8332 337.997 75.5659C331.046 75.0312 325.61 73.1599 321.6 69.9519L327.214 61.5755C331.224 63.1795 335.19 64.3379 339.2 65.0954C341.606 64.6498 343.21 63.5359 344.012 61.7983C343.744 59.2586 341.962 57.3873 338.71 56.0952C332.784 52.9763 329.487 51.1495 328.818 50.6149C325.299 47.9416 323.516 44.7781 323.516 41.1246C323.516 37.2037 325.076 33.9066 328.195 31.2333C331.314 28.56 334.878 27.2233 338.888 27.2233C342.497 27.2233 345.527 28.0699 347.977 29.8075C350.116 30.4759 352.121 31.7234 353.992 33.5947L347.977 40.4117C345.037 38.8077 341.829 38.0057 338.264 38.0057C337.685 38.0057 337.061 38.2731 336.527 38.7632C335.947 39.2533 335.68 39.8325 335.68 40.5008C335.68 41.7038 337.507 43.085 341.16 44.5999C346.106 46.6495 349.448 48.3871 351.274 49.8129C354.972 52.5753 356.799 56.0952 356.799 60.3725Z" fill="black"/>
<path d="M374.087 2.80698V15.9954H361.299V2.80698H374.087ZM374.399 74.3629H361.7V27.0005H374.399V74.3629Z" fill="black"/>
<path d="M421.984 74.3629H409.285V46.9613C409.285 43.6197 408.84 41.3474 407.904 40.0553C406.79 38.6741 404.562 37.9612 401.31 37.9612C395.161 37.9612 392.132 41.7484 392.132 49.3673V74.3629H379.433V28.159L386.117 33.9512C389.859 29.6739 394.76 27.4015 400.909 27.1342C414.944 27.1342 421.984 33.8175 421.984 47.1396V74.3629Z" fill="black"/>
<path d="M474.514 73.8282C474.514 91.6949 466.584 100.606 450.722 100.606C444.128 99.8931 439.583 98.9574 437.043 97.8881C434.504 96.8187 431.385 95.0811 427.642 92.6751L433.657 84.2987C436.865 86.4373 439.538 87.8186 441.722 88.3978C443.905 88.977 447.157 89.2889 451.568 89.2889C455.623 88.3532 458.653 86.4819 460.658 83.6749C461.727 81.2244 462.173 77.3481 461.95 72.0905C458.831 75.4767 454.108 77.1698 447.781 77.1698C440.741 77.1698 434.994 74.5856 430.583 69.3726C426.528 64.427 424.479 58.3675 424.479 51.105C424.479 44.5108 426.707 38.8522 431.162 34.1739C435.618 29.4956 441.098 27.1342 447.558 27.1342C454.821 26.5995 461.638 28.7382 468.054 33.5502L474.559 28.2481V73.8282H474.514ZM462.351 51.7733C462.351 48.1197 461.237 44.9563 459.054 42.3721C456.648 39.6542 453.618 38.273 449.964 38.273C446.222 38.273 443.192 39.5651 440.831 42.1048C438.469 44.689 437.266 47.8524 437.266 51.6396C437.266 55.6496 438.246 58.9467 440.251 61.5309C442.524 64.4716 445.598 65.9419 449.43 65.9419C453.573 65.9419 456.737 64.5607 459.009 61.8428C461.237 59.3031 462.351 55.9615 462.351 51.7733Z" fill="black"/>
<path d="M157.993 32.4808C153.493 27.8025 147.835 25.4857 140.973 25.4857C135.76 25.4857 131.26 27.2679 127.384 30.7877V0H114.596L114.641 45.4019H127.74C128.319 43.7088 129.166 42.1939 130.324 40.7681C132.552 38.0503 135.493 36.6691 139.146 36.6691C143.023 36.6691 146.141 37.9612 148.503 40.5454C150.864 43.1296 152.067 46.3821 152.067 50.2584C152.067 54.4021 151.043 57.7437 148.948 60.3725C146.676 63.1795 143.513 64.5607 139.458 64.5607C135.582 64.5607 132.508 63.1795 130.28 60.3725C129.433 59.3923 128.765 58.2784 128.23 57.0754H114.685L114.73 74.4965L122.126 69.1945C125.869 74.2738 132.418 76.5015 141.82 76.0114C148.726 76.0114 154.384 73.3381 158.706 68.036C162.761 63.0458 164.81 57.0308 164.81 49.9465C164.721 42.9514 162.493 37.1592 157.993 32.4808Z" fill="black"/>
<path d="M139.458 44.7336C136.785 44.7336 134.513 46.2484 133.354 48.4762H75.2539C74.0955 46.2484 71.8232 44.7336 69.1498 44.7336C65.3626 44.7336 62.2883 47.8079 62.2883 51.5951C62.2883 55.3823 65.3626 58.4566 69.1498 58.4566C72.0905 58.4566 74.5411 56.6298 75.5658 54.0456H133.087C134.067 56.6298 136.562 58.4566 139.503 58.4566C143.29 58.4566 146.364 55.3823 146.364 51.5951C146.32 47.7633 143.245 44.7336 139.458 44.7336Z" fill="#F7941E"/>
</svg>
