<svg width="36" height="36" viewBox="0 0 36 36" fill="none" xmlns="http://www.w3.org/2000/svg">
<path d="M11.8696 21.2096C10.9614 22.0682 9.92176 22.4871 8.72078 22.482C7.5198 22.4769 6.48373 22.0491 5.59772 21.1985C4.65248 20.3321 4.18257 19.2637 4.18785 18.025C4.19347 16.7078 4.64296 15.6121 5.55115 14.7378C6.45933 13.8635 7.52874 13.429 8.75937 13.4343C10.0048 13.4396 11.0557 13.8831 11.9267 14.765C12.2515 15.0957 12.5021 15.4417 12.7081 15.8189L17.2006 15.8381C16.8365 14.2998 16.0415 12.9636 14.8454 11.8138C13.162 10.2071 11.1489 9.39881 8.77663 9.38869C6.40433 9.37857 4.36963 10.1696 2.68737 11.7619C0.930706 13.4166 0.0470229 15.4984 0.036455 17.9759C0.0262214 20.375 0.921968 22.4174 2.70887 24.1029C4.43672 25.7254 6.43487 26.5493 8.71822 26.559C11.046 26.569 13.0808 25.7622 14.8373 24.1389C16.1027 22.9526 16.9241 21.5605 17.272 19.9468L12.8388 19.9279C12.5996 20.3816 12.2864 20.8194 11.8696 21.2096Z" fill="#2D9CDB"/>
<path d="M6.39844 24.2578H10.8984V33.75C10.8984 34.9926 9.89108 36 8.64844 36C7.4058 36 6.39844 34.9926 6.39844 33.75L6.39844 24.2578Z" fill="#2D9CDB"/>
<path d="M24.1304 21.2096C25.0386 22.0682 26.0782 22.4871 27.2792 22.482C28.4802 22.4769 29.5163 22.0491 30.4023 21.1985C31.3475 20.3321 31.8174 19.2637 31.8121 18.025C31.8065 16.7078 31.357 15.6121 30.4489 14.7378C29.5407 13.8635 28.4713 13.429 27.2406 13.4343C25.9952 13.4396 24.9443 13.8831 24.0733 14.765C23.7485 15.0957 23.4979 15.4417 23.2919 15.8189L18.7994 15.8381C19.1635 14.2998 19.9585 12.9636 21.1546 11.8138C22.838 10.2071 24.8511 9.39881 27.2234 9.38869C29.5957 9.37857 31.6304 10.1696 33.3126 11.7619C35.0693 13.4166 35.953 15.4984 35.9635 17.9759C35.9738 20.375 35.078 22.4174 33.2911 24.1029C31.5633 25.7254 29.5651 26.5493 27.2818 26.559C24.954 26.569 22.9192 25.7622 21.1627 24.1389C19.8973 22.9526 19.0759 21.5605 18.728 19.9468L23.1612 19.9279C23.4004 20.3816 23.7136 20.8194 24.1304 21.2096Z" fill="#4D4D4E"/>
<path d="M27.3751 15.572C26.4305 15.572 25.6275 16.1063 25.2182 16.8919H10.8692C10.4598 16.1063 9.65686 15.572 8.7122 15.572C7.37395 15.572 6.2876 16.6562 6.2876 17.9918C6.2876 19.3274 7.37395 20.4115 8.7122 20.4115C9.75132 20.4115 10.6173 19.7673 10.9794 18.856H25.1237C25.4701 19.7673 26.3517 20.4115 27.3909 20.4115C28.7291 20.4115 29.8155 19.3274 29.8155 17.9918C29.7997 16.6405 28.7134 15.572 27.3751 15.572Z" fill="#F7941E"/>
<path d="M18.7734 2.25C18.7734 1.00736 19.7808 0 21.0234 0C22.2661 0 23.2734 1.00736 23.2734 2.25V15.8203H18.7734V2.25Z" fill="#4D4D4E"/>
</svg>
